<svg xmlns="http://www.w3.org/2000/svg" viewBox="0 0 49.25 49.25"><defs><style>.cls-1{fill:#fff;}</style></defs><title>issuu</title><g id="Layer_2" data-name="Layer 2"><g id="Layer_1-2" data-name="Layer 1"><path class="cls-1" d="M25,15.46a10,10,0,0,0-10.28,10,10.19,10.19,0,0,0,10.12,10.2,10.19,10.19,0,0,0,10-10.22A10,10,0,0,0,25,15.46Zm-.1,17.7a7.58,7.58,0,1,1,7.49-7.6A7.67,7.67,0,0,1,24.87,33.16Z"/><path class="cls-1" d="M24.72,21.91a3.62,3.62,0,0,0-3.61,3.54,3.68,3.68,0,0,0,3.54,3.76,3.75,3.75,0,0,0,3.76-3.69A3.66,3.66,0,0,0,24.72,21.91Z"/><path class="cls-1" d="M24.62,0A24.63,24.63,0,1,0,49.25,24.62,24.62,24.62,0,0,0,24.62,0Zm2.93,40.13A14.79,14.79,0,0,1,9.88,25.82c-.07-4.55,0-9.11,0-13.66,0-1,.33-1.35,1.33-1.33,2.41.06,4.82,0,7.23,0,0,.05,5.61-.13,8.36.21a14.34,14.34,0,0,1,12.56,13.2A14.69,14.69,0,0,1,27.55,40.13Z"/></g></g></svg>