<svg xmlns="http://www.w3.org/2000/svg" viewBox="0 0 49.25 49.25"><defs><style>.cls-1{fill:#fff;}</style></defs><title>Asset 1</title><g id="Layer_2" data-name="Layer 2"><g id="Layer_1-2" data-name="Layer 1"><path class="cls-1" d="M27.12,21.79v-.05l0,.05Z"/><path class="cls-1" d="M24.62,0A24.63,24.63,0,1,0,49.25,24.62,24.63,24.63,0,0,0,24.62,0Zm-5.8,35.54H13.47V19.46h5.35ZM16.14,17.27h0a2.79,2.79,0,1,1,.07-5.56,2.79,2.79,0,1,1,0,5.56Zm22,18.27H32.75v-8.6c0-2.16-.77-3.64-2.71-3.64a2.94,2.94,0,0,0-2.74,2,3.65,3.65,0,0,0-.18,1.3v9H21.78s.07-14.57,0-16.08h5.34v2.28a5.3,5.3,0,0,1,4.82-2.65c3.52,0,6.16,2.29,6.16,7.23Z"/></g></g></svg>