<?xml version="1.0" encoding="utf-8"?>
<!-- Generator: Adobe Illustrator 19.1.0, SVG Export Plug-In . SVG Version: 6.00 Build 0)  -->
<svg version="1.1" id="Layer_1" xmlns="http://www.w3.org/2000/svg" xmlns:xlink="http://www.w3.org/1999/xlink" x="0px" y="0px"
	 viewBox="-403 404.3 56.7 56.7" style="enable-background:new -403 404.3 56.7 56.7;" xml:space="preserve">
<style type="text/css">
	.st0{fill:#FFFFFF;}
	.st1{fill:#7A7C7E;}
</style>
<g>
	<path class="st0" d="M-367.3,428.5c-2.8,0-4.1,1.6-4.8,2.7v0.1h0c0,0,0,0,0-0.1v-2.3h-5.3c0.1,1.5,0,16.1,0,16.1h5.3v-9
		c0-0.5,0-1,0.2-1.3c0.4-1,1.3-2,2.7-2c1.9,0,2.7,1.5,2.7,3.6v8.6h5.3v-9.2C-361.2,430.8-363.8,428.5-367.3,428.5z"/>
	<path class="st0" d="M-383.1,421.2c-1.8,0-3,1.2-3,2.8c0,1.5,1.2,2.8,3,2.8h0c1.9,0,3-1.2,3-2.8
		C-380.1,422.4-381.3,421.2-383.1,421.2z"/>
	<rect x="-385.8" y="428.9" class="st0" width="5.3" height="16.1"/>
</g>
<g>
	<path class="st1" d="M-365,430.2c-3.2,0-3.6,3.2-3.6,3.2h6.7C-361.8,433.4-361.8,430.2-365,430.2z"/>
	<path class="st1" d="M-380.3,433.4h-6v5.5h5.3c0.1,0,0.2,0,0.4,0c0.9,0,2.5-0.3,2.5-2.7C-378.1,433.3-380.3,433.4-380.3,433.4z"/>
	<path class="st1" d="M-374.7,408c-13.6,0-24.6,11-24.6,24.6c0,13.6,11,24.6,24.6,24.6c13.6,0,24.6-11,24.6-24.6
		C-350,419.1-361.1,408-374.7,408z M-369.5,423.2h8.5v2.5h-8.5V423.2z M-373.8,436.4c0,6.3-6.5,6.1-6.5,6.1h-6h-0.2h-4.5v-20.5h4.5
		h0.2h6c3.2,0,5.8,1.8,5.8,5.5c0,3.7-3.1,3.9-3.1,3.9C-373.5,431.3-373.8,436.4-373.8,436.4z M-357.9,436.1h-10.6
		c0,3.8,3.6,3.6,3.6,3.6c3.4,0,3.3-2.2,3.3-2.2h3.6c0,5.9-7,5.5-7,5.5c-8.4,0-7.9-7.9-7.9-7.9s0-7.9,7.9-7.9
		C-356.7,427.2-357.9,436.1-357.9,436.1z"/>
	<path class="st1" d="M-378.8,427.7c0-2.1-1.5-2.1-1.5-2.1h-0.8h-5.2v4.6h5.6C-379.7,430.2-378.8,429.9-378.8,427.7z"/>
</g>
</svg>
