<svg xmlns="http://www.w3.org/2000/svg" viewBox="0 0 49.2 49.2"><defs><style>.cls-1{fill:#fff;}</style></defs><title>behance</title><g id="Layer_2" data-name="Layer 2"><g id="Layer_1-2" data-name="Layer 1"><path class="cls-1" d="M34.3,22.2a3.64,3.64,0,0,0-3.6,3.2h6.7A3,3,0,0,0,34.3,22.2Z"/><path class="cls-1" d="M19,25.4H13v5.5h5.7c.9,0,2.5-.3,2.5-2.7C21.2,25.3,19,25.4,19,25.4Z"/><path class="cls-1" d="M24.6,0A24.6,24.6,0,1,0,49.2,24.6,24.58,24.58,0,0,0,24.6,0Zm5.2,15.2h8.5v2.5H29.8ZM25.5,28.4c0,6.3-6.5,6.1-6.5,6.1H8.3V14H19c3.2,0,5.8,1.8,5.8,5.5s-3.1,3.9-3.1,3.9C25.8,23.3,25.5,28.4,25.5,28.4Zm15.9-.3H30.8a3.37,3.37,0,0,0,3.6,3.6c3.4,0,3.3-2.2,3.3-2.2h3.6c0,5.9-7,5.5-7,5.5-8.4,0-7.9-7.9-7.9-7.9s0-7.9,7.9-7.9C42.6,19.2,41.4,28.1,41.4,28.1Z"/><path class="cls-1" d="M20.5,19.7c0-2.1-1.5-2.1-1.5-2.1H13v4.6h5.6C19.6,22.2,20.5,21.9,20.5,19.7Z"/></g></g></svg>