<?xml version="1.0" encoding="utf-8"?>
<!-- Generator: Adobe Illustrator 19.1.0, SVG Export Plug-In . SVG Version: 6.00 Build 0)  -->
<svg version="1.1" id="Layer_1" xmlns="http://www.w3.org/2000/svg" xmlns:xlink="http://www.w3.org/1999/xlink" x="0px" y="0px"
	 viewBox="-403 404.3 56.7 56.7" style="enable-background:new -403 404.3 56.7 56.7;" xml:space="preserve">
<style type="text/css">
	.st0{opacity:0.35;fill:#777777;}
	.st1{fill:#777777;}
</style>
<path class="st0" d="M-397.8,407.7c-1,0-1.8,0.8-1.8,1.8v46.3c0,1,0.8,1.8,1.8,1.8h46.3c1,0,1.8-0.8,1.8-1.8v-46.3
	c0-1-0.8-1.8-1.8-1.8H-397.8z"/>
<path class="st1" d="M-351.5,459.6h-46.3c-2.1,0-3.8-1.7-3.8-3.8v-46.3c0-2.1,1.7-3.8,3.8-3.8h46.3c2.1,0,3.8,1.7,3.8,3.8v46.3
	C-347.7,457.8-349.4,459.6-351.5,459.6z M-397.8,407.6c-1,0-1.8,0.8-1.8,1.8v46.3c0,1,0.8,1.8,1.8,1.8h46.3c1,0,1.8-0.8,1.8-1.8
	v-46.3c0-1-0.8-1.8-1.8-1.8H-397.8z"/>
<g>
	<path class="st1" d="M-395.6,422.7c1.7-0.3,3.9-0.4,6.2-0.4c3.8,0,6.3,0.7,8.3,2.2c2.1,1.6,3.4,4,3.4,7.6c0,3.9-1.4,6.5-3.4,8.2
		c-2.1,1.8-5.4,2.6-9.3,2.6c-2.4,0-4-0.1-5.2-0.3V422.7z M-391,439.2c0.4,0.1,1,0.1,1.6,0.1c4.1,0,6.8-2.2,6.8-7.1
		c0-4.2-2.4-6.4-6.4-6.4c-1,0-1.7,0.1-2.1,0.2v13.2H-391z"/>
	<path class="st1" d="M-371.4,428l1.2,6c0.3,1.5,0.6,3.1,0.8,4.8h0.1c0.3-1.7,0.7-3.4,1.1-4.8l1.6-6h3.6l1.5,5.8
		c0.4,1.7,0.8,3.3,1.1,5h0.1c0.2-1.7,0.5-3.3,0.8-5l1.3-5.8h4.5l-4.5,14.7h-4.3l-1.4-5.2c-0.4-1.4-0.6-2.8-0.9-4.6h-0.1
		c-0.3,1.8-0.6,3.2-1,4.6l-1.5,5.2h-4.3L-376,428H-371.4z"/>
</g>
</svg>
