<?xml version="1.0" encoding="utf-8"?>
<!-- Generator: Adobe Illustrator 22.0.1, SVG Export Plug-In . SVG Version: 6.00 Build 0)  -->
<svg version="1.1" id="Layer_1" xmlns="http://www.w3.org/2000/svg" xmlns:xlink="http://www.w3.org/1999/xlink" x="0px" y="0px"
	 viewBox="0 0 49.2 49.2" style="enable-background:new 0 0 49.2 49.2;" xml:space="preserve">
<style type="text/css">
	.st0{fill:#FFFFFF;}
</style>
<title>Asset 1</title>
<g id="Layer_2_1_">
	<g id="Layer_1-2">
		<path class="st0" d="M24.6,0C11,0,0,11,0,24.6s11,24.6,24.6,24.6s24.6-11,24.6-24.6c0,0,0,0,0,0C49.2,11,38.2,0,24.6,0
			C24.6,0,24.6,0,24.6,0z M41.2,13L24.6,27.4L8,13H41.2z M6.9,35.1v-21l12.2,10.5L6.9,35.1z M8,36.2l12.1-10.5l4.5,3.7l4.4-3.7
			l12.2,10.5H8z M30.2,24.6l12.2-10.5v21L30.2,24.6z"/>
	</g>
</g>
</svg>
