<?xml version="1.0" encoding="utf-8"?>
<!-- Generator: Adobe Illustrator 19.1.0, SVG Export Plug-In . SVG Version: 6.00 Build 0)  -->
<svg version="1.1" id="Layer_1" xmlns="http://www.w3.org/2000/svg" xmlns:xlink="http://www.w3.org/1999/xlink" x="0px" y="0px"
	 viewBox="-403 404.3 56.7 56.7" style="enable-background:new -403 404.3 56.7 56.7;" xml:space="preserve">
<style type="text/css">
	.st0{opacity:0.35;fill:#777777;}
	.st1{fill:#777777;}
</style>
<path class="st0" d="M-397.8,407.7c-1,0-1.8,0.8-1.8,1.8v46.3c0,1,0.8,1.8,1.8,1.8h46.3c1,0,1.8-0.8,1.8-1.8v-46.3
	c0-1-0.8-1.8-1.8-1.8H-397.8z"/>
<path class="st1" d="M-351.5,459.6h-46.3c-2.1,0-3.8-1.7-3.8-3.8v-46.3c0-2.1,1.7-3.8,3.8-3.8h46.3c2.1,0,3.8,1.7,3.8,3.8v46.3
	C-347.7,457.8-349.4,459.6-351.5,459.6z M-397.8,407.6c-1,0-1.8,0.8-1.8,1.8v46.3c0,1,0.8,1.8,1.8,1.8h46.3c1,0,1.8-0.8,1.8-1.8
	v-46.3c0-1-0.8-1.8-1.8-1.8H-397.8z"/>
<g>
	<path class="st1" d="M-381.4,423v20.2h-4.6V423H-381.4z"/>
	<path class="st1" d="M-363.4,421.9v16.9c0,1.7,0.1,3.4,0.1,4.4h-4l-0.2-2.2h-0.1c-0.9,1.6-2.7,2.5-4.6,2.5c-3.5,0-6.3-3-6.3-7.5
		c0-4.9,3.1-7.8,6.6-7.8c1.8,0,3.2,0.6,3.9,1.6h0.1v-8h4.5V421.9z M-368,434.8c0-0.2,0-0.6-0.1-0.8c-0.3-1.2-1.3-2.2-2.7-2.2
		c-2.1,0-3.2,1.9-3.2,4.2c0,2.5,1.2,4,3.1,4c1.3,0,2.4-0.9,2.6-2.2c0.1-0.3,0.1-0.7,0.1-1.1v-1.9H-368z"/>
</g>
</svg>
