<svg xmlns="http://www.w3.org/2000/svg" viewBox="0 0 49.26 49.26"><defs><style>.cls-1{fill:#f89789;}</style></defs><title>invalid</title><g id="Layer_2" data-name="Layer 2"><g id="Layer_1-2" data-name="Layer 1"><g id="Layer_1-2-2" data-name="Layer 1-2"><path class="cls-1" d="M24.64,3A21.63,21.63,0,1,1,3,24.63,21.65,21.65,0,0,1,24.64,3h0m0-3h0A24.63,24.63,0,1,0,49.26,24.63h0A24.62,24.62,0,0,0,24.64,0Z"/></g><path class="cls-1" d="M28.4,13.78l-.48,13a1.13,1.13,0,0,1-1.12,1.08H22.47a1.13,1.13,0,0,1-1.12-1.08l-.48-13a1,1,0,0,1,.3-.77,1,1,0,0,1,.75-.32h5.43a1,1,0,0,1,.75.32A1,1,0,0,1,28.4,13.78Zm-.51,17.9v3.79a1.09,1.09,0,0,1-1.09,1.09H22.47a1.09,1.09,0,0,1-1.09-1.09V31.68a1.09,1.09,0,0,1,1.09-1.09H26.8a1.09,1.09,0,0,1,1.09,1.09Z"/></g></g></svg>