<?xml version="1.0" encoding="utf-8"?>
<!-- Generator: Adobe Illustrator 16.0.4, SVG Export Plug-In . SVG Version: 6.00 Build 0)  -->
<!DOCTYPE svg PUBLIC "-//W3C//DTD SVG 1.1//EN" "http://www.w3.org/Graphics/SVG/1.1/DTD/svg11.dtd">
<svg version="1.1" id="Layer_1" xmlns="http://www.w3.org/2000/svg" xmlns:xlink="http://www.w3.org/1999/xlink" x="0px" y="0px"
	 width="56.693px" height="56.693px" viewBox="0 0 56.693 56.693" enable-background="new 0 0 56.693 56.693" xml:space="preserve">
<path fill="#7A7C7E" d="M28.347,3.721c-13.603,0-24.625,11.023-24.625,24.625s11.022,24.625,24.625,24.625
	c13.598,0,24.623-11.023,24.623-24.625C52.97,14.748,41.944,3.721,28.347,3.721z"/>
<g>
	<path fill-rule="evenodd" clip-rule="evenodd" fill="#FFFFFF" d="M43.057,27.985c-0.616-6.898-5.683-12.38-12.552-13.208
		c-2.749-0.331-8.361-0.155-8.362-0.206c-2.411,0-4.821,0.035-7.23-0.016c-0.997-0.021-1.343,0.326-1.335,1.326
		c0.036,4.553-0.043,9.107,0.022,13.659c0.132,9.256,8.604,16.091,17.673,14.315C38.697,42.404,43.739,35.613,43.057,27.985z
		 M28.532,39.332c-5.531,0.03-10.135-4.61-10.119-10.201c0.015-5.613,4.529-9.984,10.278-9.953c5.39,0.029,9.861,4.548,9.83,9.936
		C38.488,34.723,34.015,39.3,28.532,39.332z"/>
	<path fill-rule="evenodd" clip-rule="evenodd" fill="#FFFFFF" d="M28.447,21.72c-4.127,0.007-7.512,3.397-7.522,7.535
		c-0.011,4.259,3.407,7.658,7.666,7.623c4.081-0.034,7.475-3.476,7.492-7.601C36.1,25.139,32.638,21.712,28.447,21.72z
		 M28.376,32.927c-1.978-0.039-3.565-1.718-3.549-3.751c0.016-1.93,1.668-3.552,3.616-3.547c2.025,0.005,3.674,1.619,3.69,3.614
		C32.149,31.246,30.394,32.966,28.376,32.927z"/>
</g>
</svg>
