<?xml version="1.0" encoding="utf-8"?>
<!-- Generator: Adobe Illustrator 16.0.4, SVG Export Plug-In . SVG Version: 6.00 Build 0)  -->
<!DOCTYPE svg PUBLIC "-//W3C//DTD SVG 1.1//EN" "http://www.w3.org/Graphics/SVG/1.1/DTD/svg11.dtd">
<svg version="1.1" id="Layer_1" xmlns="http://www.w3.org/2000/svg" xmlns:xlink="http://www.w3.org/1999/xlink" x="0px" y="0px"
	 width="56.693px" height="56.693px" viewBox="0 0 56.693 56.693" enable-background="new 0 0 56.693 56.693" xml:space="preserve">
<path fill="#7A7C7E" d="M28.347,5.155C14.747,5.155,3.722,16.18,3.722,29.78c0,13.602,11.023,24.625,24.625,24.625
	c13.598,0,24.623-11.023,24.623-24.625C52.97,16.181,41.944,5.155,28.347,5.155z"/>
<g>
	<path fill="#FFFFFF" d="M35.662,24.241c-2.836,0-4.106,1.558-4.818,2.655v0.053h-0.034c0.013-0.016,0.025-0.034,0.034-0.053v-2.277
		h-5.347c0.072,1.507,0,16.08,0,16.08h5.347v-8.981c0-0.482,0.035-0.959,0.177-1.304c0.388-0.958,1.269-1.958,2.743-1.958
		c1.937,0,2.711,1.478,2.711,3.638v8.604h5.345v-9.219C41.817,26.539,39.177,24.241,35.662,24.241z"/>
	<path fill="#FFFFFF" d="M19.9,16.861c-1.828,0-3.025,1.204-3.025,2.781c0,1.542,1.159,2.779,2.955,2.779h0.034
		c1.865,0,3.026-1.237,3.026-2.779C22.854,18.065,21.729,16.861,19.9,16.861z"/>
	<rect x="17.193" y="24.619" fill="#FFFFFF" width="5.346" height="16.08"/>
</g>
</svg>
