<?xml version="1.0" encoding="utf-8"?>
<!-- Generator: Adobe Illustrator 19.1.0, SVG Export Plug-In . SVG Version: 6.00 Build 0)  -->
<svg version="1.1" id="Layer_1" xmlns="http://www.w3.org/2000/svg" xmlns:xlink="http://www.w3.org/1999/xlink" x="0px" y="0px"
	 viewBox="-403 404.3 56.7 56.7" style="enable-background:new -403 404.3 56.7 56.7;" xml:space="preserve">
<style type="text/css">
	.st0{opacity:0.35;fill:#777777;}
	.st1{fill:#777777;}
</style>
<path class="st0" d="M-397.8,407.7c-1,0-1.8,0.8-1.8,1.8v46.3c0,1,0.8,1.8,1.8,1.8h46.3c1,0,1.8-0.8,1.8-1.8v-46.3
	c0-1-0.8-1.8-1.8-1.8H-397.8z"/>
<path class="st1" d="M-351.5,459.6h-46.3c-2.1,0-3.8-1.7-3.8-3.8v-46.3c0-2.1,1.7-3.8,3.8-3.8h46.3c2.1,0,3.8,1.7,3.8,3.8v46.3
	C-347.7,457.8-349.4,459.6-351.5,459.6z M-397.8,407.6c-1,0-1.8,0.8-1.8,1.8v46.3c0,1,0.8,1.8,1.8,1.8h46.3c1,0,1.8-0.8,1.8-1.8
	v-46.3c0-1-0.8-1.8-1.8-1.8H-397.8z"/>
<g>
	<path class="st1" d="M-388,422.7c1.4-0.2,3.4-0.4,6.2-0.4c2.8,0,4.8,0.5,6.2,1.6c1.3,1,2.2,2.7,2.2,4.7s-0.7,3.7-1.9,4.8
		c-1.6,1.5-3.9,2.1-6.6,2.1c-0.6,0-1.1,0-1.6-0.1v7.2h-4.5L-388,422.7L-388,422.7z M-383.5,431.9c0.4,0.1,0.9,0.1,1.5,0.1
		c2.4,0,3.9-1.2,3.9-3.3c0-1.9-1.3-3-3.6-3c-0.9,0-1.6,0.1-1.9,0.2v6H-383.5z"/>
	<path class="st1" d="M-371.4,438.7c0.8,0.5,2.6,1.1,3.9,1.1c1.4,0,1.9-0.5,1.9-1.2s-0.5-1.1-2.2-1.7c-3-1-4.2-2.7-4.2-4.4
		c0-2.7,2.3-4.8,6-4.8c1.7,0,3.2,0.4,4.1,0.8l-0.8,3.1c-0.7-0.4-1.9-0.8-3.2-0.8c-1.1,0-1.7,0.5-1.7,1.2s0.6,1,2.4,1.7
		c2.8,1,4,2.4,4,4.5c0,2.7-2.2,4.7-6.4,4.7c-1.9,0-3.6-0.4-4.7-1L-371.4,438.7z"/>
</g>
</svg>
