<?xml version="1.0" encoding="utf-8"?>
<!-- Generator: Adobe Illustrator 16.0.4, SVG Export Plug-In . SVG Version: 6.00 Build 0)  -->
<!DOCTYPE svg PUBLIC "-//W3C//DTD SVG 1.1//EN" "http://www.w3.org/Graphics/SVG/1.1/DTD/svg11.dtd">
<svg version="1.1" id="Layer_1" xmlns="http://www.w3.org/2000/svg" xmlns:xlink="http://www.w3.org/1999/xlink" x="0px" y="0px"
	 width="56.693px" height="56.693px" viewBox="0 0 56.693 56.693" enable-background="new 0 0 56.693 56.693" xml:space="preserve">
<path fill="#00CCCC" d="M28.347,3.721c-13.603,0-24.625,11.023-24.625,24.625s11.022,24.625,24.625,24.625
	c13.598,0,24.623-11.023,24.623-24.625C52.97,14.748,41.944,3.721,28.347,3.721z"/>
<path fill="#FFFFFF" d="M41.187,13.952h-0.998v-0.854h-3.074v28.1h3.074V14.238h0.666V42.05h-3.74v-0.854h-1.58v0.854H20.182v-0.486
	h-1.274v0.486h-2.404v-0.854h19.031v-28.1H15.506v26.387v1.713l0.665,1.14h2.737v1.263l0.638-0.312l0.639,0.312v-1.263h21.005
	L41.187,13.952L41.187,13.952z M16.504,14.238h0.498v25.744h-0.498V14.238z"/>
</svg>
