<?xml version="1.0" encoding="utf-8"?>
<!-- Generator: Adobe Illustrator 16.0.4, SVG Export Plug-In . SVG Version: 6.00 Build 0)  -->
<!DOCTYPE svg PUBLIC "-//W3C//DTD SVG 1.1//EN" "http://www.w3.org/Graphics/SVG/1.1/DTD/svg11.dtd">
<svg version="1.1" id="Layer_1" xmlns="http://www.w3.org/2000/svg" xmlns:xlink="http://www.w3.org/1999/xlink" x="0px" y="0px"
	 width="56.693px" height="56.693px" viewBox="0 0 56.693 56.693" enable-background="new 0 0 56.693 56.693" xml:space="preserve">
<g>
	<path fill="#00CCCC" d="M28.347,3.721c-13.603,0-24.625,11.023-24.625,24.625s11.022,24.625,24.625,24.625
		c13.598,0,24.623-11.023,24.623-24.625C52.97,14.748,41.944,3.721,28.347,3.721z M35.821,12.535l5.054,5.215h-5.054V12.535z
		 M41.326,44.319H17.367V12.374h17.821v6h6.139L41.326,44.319L41.326,44.319z"/>
	<rect x="20.013" y="16.18" fill="#00CCCC" width="6.083" height="1"/>
	<rect x="20.013" y="20.747" fill="#00CCCC" width="18.917" height="1"/>
	<rect x="20.014" y="25.313" fill="#00CCCC" width="18.917" height="1"/>
	<rect x="20.014" y="29.88" fill="#00CCCC" width="18.917" height="1"/>
	<rect x="20.014" y="34.447" fill="#00CCCC" width="18.917" height="1"/>
	<rect x="20.013" y="39.013" fill="#00CCCC" width="18.917" height="1"/>
</g>
</svg>
